<?xml version="1.0" standalone="no"?>
<!DOCTYPE svg PUBLIC "-//W3C//DTD SVG 20010904//EN"
 "http://www.w3.org/TR/2001/REC-SVG-20010904/DTD/svg10.dtd">
<svg version="1.0" xmlns="http://www.w3.org/2000/svg"
 width="1920.000000pt" height="167.000000pt" viewBox="0 0 1920.000000 167.000000"
 preserveAspectRatio="xMidYMid meet">
<metadata>
Created by potrace 1.16, written by Peter Selinger 2001-2019
</metadata>
<g transform="translate(0.000000,167.000000) scale(0.100000,-0.100000)"
fill="#000000" stroke="none">
<path d="M48 1653 l-48 -4 0 -75 0 -74 123 0 c397 0 768 -94 1477 -375 512
-203 776 -291 1050 -353 472 -107 921 -127 1375 -61 338 49 647 132 1339 359
604 198 872 274 1206 339 363 71 651 95 1023 88 404 -8 662 -51 1057 -179 268
-87 498 -184 955 -406 394 -190 545 -260 700 -322 364 -145 629 -193 939 -170
473 34 929 103 3011 450 1752 293 2435 398 3216 494 692 86 1276 136 1597 136
l132 0 0 74 0 73 -37 7 c-63 10 -171 7 -179 -5 -5 -9 -39 -10 -115 -6 -78 5
-109 3 -109 -5 0 -8 -24 -9 -80 -4 -58 5 -80 3 -80 -5 0 -9 -19 -10 -65 -6
-42 4 -67 2 -71 -5 -4 -7 -26 -8 -60 -4 -35 4 -55 2 -60 -5 -4 -8 -25 -9 -60
-5 -38 4 -54 3 -54 -5 0 -8 -16 -10 -50 -6 -30 4 -52 2 -56 -5 -4 -6 -24 -8
-50 -4 -29 4 -44 2 -44 -5 0 -8 -16 -9 -50 -5 -35 5 -50 3 -50 -5 0 -8 -14
-10 -45 -6 -30 5 -45 3 -45 -5 0 -7 -15 -9 -45 -5 -30 5 -45 3 -45 -4 0 -8
-13 -9 -39 -5 -25 4 -42 2 -47 -5 -4 -7 -21 -9 -45 -5 -26 4 -39 2 -39 -5 0
-8 -13 -9 -40 -5 -27 4 -40 3 -40 -5 0 -8 -13 -9 -40 -5 -27 4 -40 3 -40 -5 0
-8 -13 -9 -40 -5 -27 4 -40 3 -40 -5 0 -8 -13 -9 -40 -5 -27 4 -40 3 -40 -5 0
-8 -12 -10 -35 -6 -19 3 -37 1 -41 -5 -4 -5 -21 -7 -40 -3 -23 4 -34 2 -34 -6
0 -8 -12 -10 -35 -6 -22 4 -35 2 -35 -5 0 -7 -14 -8 -40 -4 -27 4 -40 3 -40
-5 0 -7 -12 -9 -35 -5 -24 5 -35 3 -35 -5 0 -7 -11 -9 -35 -5 -24 5 -35 3 -35
-5 0 -8 -12 -10 -35 -6 -22 4 -35 2 -35 -5 0 -7 -13 -8 -35 -5 -21 4 -35 2
-35 -5 0 -6 -13 -8 -35 -4 -24 5 -35 3 -35 -5 0 -7 -11 -9 -35 -5 -24 5 -35 3
-35 -5 0 -7 -11 -9 -35 -5 -24 5 -35 3 -35 -5 0 -7 -10 -9 -30 -5 -19 3 -30 1
-30 -6 0 -7 -13 -9 -35 -5 -21 4 -35 2 -35 -5 0 -6 -13 -8 -35 -4 -24 5 -35 3
-35 -5 0 -7 -10 -9 -30 -5 -19 3 -30 1 -30 -5 0 -7 -12 -9 -35 -5 -24 5 -35 3
-35 -5 0 -7 -10 -9 -30 -5 -19 3 -30 1 -30 -5 0 -7 -12 -9 -35 -5 -24 5 -35 3
-35 -5 0 -7 -10 -9 -30 -5 -19 3 -30 1 -30 -5 0 -7 -12 -9 -35 -5 -24 5 -35 3
-35 -5 0 -7 -10 -9 -30 -5 -19 3 -30 1 -30 -5 0 -7 -11 -9 -30 -5 -19 3 -30 1
-30 -5 0 -7 -12 -9 -35 -5 -24 5 -35 3 -35 -5 0 -7 -10 -9 -30 -6 -19 4 -30 2
-30 -4 0 -7 -11 -9 -30 -5 -19 3 -30 1 -30 -5 0 -7 -11 -9 -30 -5 -19 3 -30 1
-30 -5 0 -7 -12 -9 -35 -5 -23 5 -35 3 -35 -4 0 -8 -11 -9 -30 -5 -20 4 -30 3
-30 -5 0 -9 -10 -11 -30 -6 -19 3 -30 1 -30 -5 0 -7 -11 -9 -30 -5 -19 3 -30
1 -30 -5 0 -7 -11 -9 -30 -5 -19 3 -30 1 -30 -5 0 -7 -11 -9 -30 -5 -19 3 -30
1 -30 -5 0 -7 -11 -9 -30 -5 -19 3 -30 1 -30 -5 0 -7 -11 -9 -30 -5 -19 3 -30
1 -30 -5 0 -7 -11 -9 -30 -5 -19 3 -30 1 -30 -5 0 -7 -11 -9 -30 -5 -19 3 -30
1 -30 -5 0 -7 -12 -9 -35 -5 -23 5 -35 3 -35 -4 0 -8 -11 -9 -30 -5 -20 4 -30
3 -30 -5 0 -8 -10 -9 -30 -5 -20 4 -30 3 -30 -5 0 -8 -10 -9 -30 -5 -20 4 -30
3 -30 -5 0 -8 -10 -9 -30 -5 -20 4 -30 3 -30 -5 0 -8 -10 -9 -30 -5 -20 4 -30
3 -30 -5 0 -8 -9 -10 -25 -6 -16 4 -25 2 -25 -5 0 -7 -11 -9 -30 -5 -19 3 -30
1 -30 -5 0 -7 -11 -9 -30 -5 -19 3 -30 1 -30 -5 0 -7 -11 -9 -30 -5 -19 3 -30
1 -30 -5 0 -7 -11 -9 -30 -5 -19 3 -30 1 -30 -5 0 -7 -11 -9 -30 -5 -19 3 -30
1 -30 -5 0 -7 -11 -9 -30 -5 -19 3 -30 1 -30 -5 0 -7 -11 -9 -30 -5 -19 3 -30
1 -30 -5 0 -7 -11 -9 -30 -5 -19 3 -30 1 -30 -5 0 -7 -11 -9 -30 -5 -19 3 -30
1 -30 -5 0 -7 -11 -9 -30 -5 -19 3 -30 1 -30 -5 0 -7 -11 -9 -30 -5 -19 3 -30
1 -30 -5 0 -7 -11 -9 -30 -5 -19 3 -30 1 -30 -5 0 -7 -11 -9 -30 -5 -18 3 -30
1 -30 -5 0 -7 -11 -8 -30 -4 -20 4 -30 3 -30 -5 0 -8 -10 -9 -30 -5 -20 4 -30
3 -30 -5 0 -8 -10 -9 -30 -5 -20 4 -30 3 -30 -5 0 -8 -10 -9 -30 -5 -20 4 -30
3 -30 -5 0 -8 -10 -9 -30 -5 -20 4 -30 3 -30 -5 0 -8 -10 -9 -30 -5 -20 4 -30
3 -30 -5 0 -8 -10 -9 -30 -5 -20 4 -30 3 -30 -5 0 -8 -10 -9 -30 -5 -20 4 -30
3 -30 -5 0 -8 -10 -9 -30 -5 -20 4 -30 3 -30 -5 0 -8 -10 -9 -30 -5 -20 4 -30
3 -30 -5 0 -8 -10 -9 -30 -5 -20 4 -30 3 -30 -5 0 -9 -10 -11 -30 -6 -19 3
-30 1 -30 -5 0 -7 -11 -9 -30 -5 -19 3 -30 1 -30 -5 0 -7 -11 -9 -30 -5 -19 3
-30 1 -30 -5 0 -7 -11 -9 -30 -5 -19 3 -30 1 -30 -5 0 -7 -11 -9 -30 -5 -19 3
-30 1 -30 -5 0 -7 -12 -9 -35 -5 -24 5 -35 3 -35 -5 0 -7 -10 -9 -30 -5 -19 3
-30 1 -30 -5 0 -7 -11 -9 -30 -5 -19 3 -30 1 -30 -5 0 -7 -12 -9 -35 -5 -24 5
-35 3 -35 -5 0 -7 -10 -9 -30 -5 -19 3 -30 1 -30 -5 0 -7 -12 -9 -35 -5 -24 5
-35 3 -35 -5 0 -7 -10 -9 -30 -5 -19 3 -30 1 -30 -5 0 -7 -12 -9 -35 -5 -24 5
-35 3 -35 -5 0 -7 -10 -9 -30 -5 -19 3 -30 1 -30 -6 0 -7 -13 -9 -35 -5 -22 4
-35 2 -35 -5 0 -7 -13 -8 -35 -5 -22 4 -35 2 -35 -5 0 -7 -13 -8 -35 -5 -22 4
-35 2 -35 -5 0 -7 -13 -8 -35 -5 -19 3 -37 1 -41 -5 -4 -5 -21 -7 -40 -3 -23
4 -34 2 -34 -6 0 -8 -12 -10 -40 -5 -27 4 -40 3 -40 -5 0 -8 -13 -9 -40 -5
-27 4 -40 3 -40 -5 0 -8 -13 -9 -40 -5 -27 4 -40 3 -40 -5 0 -8 -14 -10 -45
-6 -30 5 -45 3 -45 -4 0 -8 -16 -9 -49 -5 -33 4 -52 3 -57 -5 -4 -8 -26 -9
-65 -5 -39 5 -59 3 -59 -4 0 -6 -47 -10 -135 -10 -89 0 -135 4 -135 11 0 7
-16 8 -45 3 -30 -4 -45 -3 -45 5 0 6 -11 8 -30 5 -19 -4 -30 -2 -30 5 0 7 -9
9 -25 5 -16 -4 -25 -2 -25 5 0 7 -9 9 -25 5 -14 -3 -25 -2 -25 4 0 6 -10 8
-22 4 -15 -3 -19 -2 -14 7 6 9 0 10 -20 5 -20 -5 -25 -4 -19 6 5 9 2 10 -14 5
-12 -4 -21 -2 -21 4 0 6 -7 8 -15 5 -8 -4 -15 -1 -15 5 0 6 -7 8 -15 5 -8 -4
-15 -1 -15 5 0 6 -7 8 -15 5 -8 -4 -15 -1 -15 5 0 6 -7 8 -15 5 -8 -4 -15 -1
-15 5 0 6 -7 8 -15 5 -8 -4 -15 -1 -15 5 0 6 -7 8 -17 4 -11 -5 -14 -3 -8 6 6
10 2 11 -15 6 -15 -5 -20 -4 -16 4 5 7 1 9 -8 5 -9 -3 -16 -1 -16 5 0 6 -7 8
-17 4 -11 -4 -14 -3 -9 5 5 8 2 10 -8 6 -9 -3 -16 -1 -16 6 0 6 -4 9 -9 6 -14
-9 -42 5 -34 17 4 6 0 8 -10 4 -10 -3 -17 -2 -17 4 0 6 -4 8 -9 5 -13 -8 -42
4 -35 15 3 5 -2 6 -10 3 -9 -3 -16 -1 -16 6 0 6 -4 9 -9 6 -14 -9 -42 5 -34
17 3 5 1 7 -5 4 -15 -10 -43 3 -35 16 4 6 0 8 -10 4 -10 -3 -17 -2 -17 4 0 6
-4 8 -9 5 -13 -8 -42 4 -35 15 3 5 -3 6 -12 2 -12 -4 -15 -3 -10 5 5 8 1 10
-10 5 -12 -4 -15 -3 -10 5 5 8 1 10 -10 5 -13 -5 -15 -3 -9 7 5 8 4 11 -3 7
-13 -9 -44 2 -37 13 6 10 -24 22 -36 14 -5 -3 -9 0 -9 6 0 6 -4 8 -10 5 -5 -3
-10 -1 -10 5 0 6 -4 8 -10 5 -5 -3 -10 -1 -10 5 0 6 -5 8 -10 5 -5 -3 -10 -1
-10 5 0 6 -4 9 -9 6 -13 -8 -42 4 -35 15 3 5 -3 6 -12 2 -12 -4 -15 -3 -10 5
5 8 1 10 -10 5 -12 -4 -15 -3 -10 5 5 8 1 10 -10 5 -12 -4 -15 -3 -10 5 5 8 1
10 -10 5 -12 -4 -15 -3 -10 5 5 8 1 10 -10 5 -12 -4 -15 -3 -10 5 5 8 1 10
-10 5 -12 -4 -15 -3 -10 5 5 8 1 10 -10 5 -12 -4 -15 -3 -10 5 5 8 1 10 -10 5
-12 -4 -15 -3 -10 5 5 8 1 10 -10 5 -12 -4 -15 -3 -10 5 5 8 1 10 -10 5 -13
-5 -15 -3 -9 7 5 8 4 11 -3 7 -15 -10 -43 3 -35 16 4 6 0 8 -10 4 -10 -3 -17
-2 -17 4 0 6 -4 7 -10 4 -5 -3 -10 -1 -10 5 0 6 -4 8 -10 5 -5 -3 -10 -1 -10
5 0 6 -4 9 -9 6 -13 -8 -42 4 -35 15 3 5 -3 6 -12 2 -12 -4 -15 -3 -10 5 5 8
1 10 -10 5 -12 -4 -15 -3 -10 5 5 8 1 10 -10 5 -12 -4 -15 -3 -10 5 5 8 2 10
-8 6 -9 -3 -16 -1 -16 6 0 6 -4 8 -10 5 -5 -3 -10 -1 -10 5 0 6 -4 9 -9 6 -13
-8 -42 4 -35 15 3 5 -3 6 -12 2 -12 -4 -15 -3 -10 5 5 8 2 10 -8 6 -9 -3 -16
-1 -16 6 0 6 -4 9 -9 5 -14 -8 -61 16 -54 28 4 6 0 8 -10 4 -21 -8 -49 2 -41
14 3 5 -2 6 -10 3 -9 -3 -16 -1 -16 6 0 6 -4 9 -9 6 -14 -9 -42 5 -34 17 4 6
0 8 -10 4 -22 -8 -49 2 -40 16 4 6 0 8 -10 4 -22 -8 -49 2 -41 15 4 6 -2 7
-16 3 -15 -5 -20 -4 -16 4 5 7 1 9 -8 5 -9 -3 -16 -1 -16 5 0 6 -7 8 -17 4
-11 -5 -14 -3 -8 6 6 10 2 11 -15 6 -16 -5 -20 -4 -15 5 5 9 1 10 -15 5 -15
-5 -20 -4 -16 4 5 7 1 9 -8 5 -9 -3 -16 -1 -16 5 0 6 -7 8 -15 5 -8 -4 -15 -1
-15 5 0 6 -7 8 -15 5 -8 -4 -15 -1 -15 5 0 6 -7 8 -15 5 -8 -4 -15 -1 -15 5 0
6 -7 8 -15 5 -8 -4 -15 -2 -15 4 0 6 -10 8 -22 4 -15 -4 -19 -2 -13 7 6 10 2
11 -15 6 -16 -5 -20 -4 -15 5 5 9 2 10 -14 5 -11 -3 -21 -2 -21 3 0 6 -10 8
-22 4 -15 -4 -19 -2 -13 7 5 10 2 11 -14 6 -11 -3 -21 -2 -21 3 0 6 -9 8 -20
5 -11 -3 -20 -1 -20 5 0 6 -10 8 -22 4 -15 -3 -19 -2 -14 7 6 9 0 10 -20 5
-19 -5 -25 -4 -20 5 6 8 0 10 -18 5 -15 -3 -26 -2 -26 4 0 6 -9 8 -20 5 -11
-3 -20 0 -20 6 0 7 -9 9 -25 5 -16 -4 -25 -2 -25 5 0 7 -9 9 -25 5 -15 -4 -25
-2 -25 5 0 6 -11 8 -30 4 -19 -3 -30 -1 -30 5 0 7 -11 9 -30 6 -19 -4 -30 -2
-30 4 0 7 -11 9 -30 5 -19 -3 -30 -1 -30 6 0 8 -13 9 -40 5 -26 -4 -40 -3 -40
4 0 7 -17 9 -50 5 -33 -4 -50 -2 -50 5 0 8 -21 9 -65 5 -38 -3 -70 -2 -77 4
-17 14 -359 14 -376 0 -8 -6 -41 -7 -87 -4 -50 5 -76 3 -81 -4 -4 -8 -25 -9
-60 -5 -38 4 -54 3 -54 -5 0 -8 -14 -10 -45 -6 -30 5 -45 3 -45 -4 0 -8 -14
-9 -40 -5 -27 4 -40 3 -40 -5 0 -8 -12 -10 -35 -6 -21 4 -35 2 -35 -5 0 -6
-13 -8 -35 -4 -24 5 -35 3 -35 -5 0 -7 -10 -9 -30 -5 -18 3 -30 1 -30 -5 0 -7
-12 -8 -31 -4 -24 6 -30 4 -24 -5 6 -10 1 -12 -23 -7 -20 4 -32 2 -32 -4 0 -7
-10 -9 -25 -5 -16 4 -25 2 -25 -5 0 -7 -9 -9 -25 -5 -16 4 -25 2 -25 -5 0 -7
-9 -9 -26 -5 -18 5 -24 3 -18 -5 5 -9 0 -10 -20 -5 -16 4 -26 2 -26 -5 0 -7
-9 -9 -26 -5 -18 5 -24 3 -18 -5 5 -9 0 -10 -20 -5 -16 4 -26 2 -26 -4 0 -7
-8 -9 -20 -5 -12 4 -20 2 -20 -5 0 -7 -8 -9 -20 -5 -12 4 -20 2 -20 -5 0 -7
-8 -9 -20 -5 -12 4 -20 2 -20 -5 0 -7 -8 -9 -21 -5 -16 5 -19 4 -14 -5 6 -10
1 -11 -19 -6 -20 5 -26 4 -20 -5 5 -9 1 -10 -14 -7 -12 4 -22 2 -22 -4 0 -5
-9 -6 -20 -3 -12 4 -20 2 -20 -5 0 -7 -8 -9 -21 -5 -16 5 -19 4 -14 -6 6 -9 2
-11 -13 -7 -12 4 -22 2 -22 -4 0 -5 -10 -6 -21 -3 -16 5 -19 4 -14 -5 5 -9 1
-10 -15 -5 -17 5 -21 4 -15 -6 6 -9 2 -11 -13 -7 -12 4 -22 2 -22 -4 0 -5 -10
-6 -21 -3 -16 5 -19 4 -14 -5 5 -9 1 -10 -15 -5 -17 5 -21 4 -15 -6 6 -9 2
-11 -13 -7 -12 4 -22 2 -22 -4 0 -6 -7 -8 -15 -4 -8 3 -15 1 -15 -5 0 -6 -9
-8 -21 -4 -16 5 -19 4 -14 -5 5 -9 1 -10 -15 -5 -16 5 -20 4 -15 -5 5 -9 1
-10 -15 -5 -17 5 -21 4 -15 -6 6 -9 2 -11 -13 -7 -14 4 -20 2 -15 -5 4 -6 -2
-8 -15 -5 -14 4 -20 2 -15 -5 4 -6 -2 -8 -15 -5 -12 4 -22 2 -22 -4 0 -6 -7
-8 -15 -4 -8 3 -15 1 -15 -5 0 -6 -7 -9 -15 -5 -8 3 -15 1 -15 -5 0 -6 -7 -9
-15 -5 -8 3 -15 1 -15 -5 0 -6 -7 -9 -15 -5 -8 3 -15 1 -15 -5 0 -6 -7 -9 -15
-5 -8 3 -15 1 -15 -5 0 -6 -7 -9 -15 -5 -8 3 -15 1 -15 -5 0 -6 -7 -9 -15 -5
-8 3 -15 1 -15 -5 0 -6 -7 -9 -15 -5 -8 3 -15 1 -15 -5 0 -6 -7 -9 -15 -5 -8
3 -15 1 -15 -5 0 -6 -7 -9 -15 -5 -8 3 -15 1 -15 -5 0 -6 -7 -9 -15 -5 -8 3
-15 1 -15 -5 0 -6 -7 -9 -15 -5 -8 3 -15 1 -15 -5 0 -6 -7 -9 -15 -5 -8 3 -15
1 -15 -5 0 -6 -9 -8 -21 -4 -16 5 -19 4 -14 -5 5 -9 1 -10 -15 -5 -16 5 -20 4
-15 -5 5 -9 1 -10 -15 -5 -16 5 -20 4 -15 -5 5 -9 1 -10 -15 -5 -16 5 -20 4
-15 -5 5 -9 1 -10 -15 -5 -17 5 -21 4 -15 -6 6 -9 2 -11 -13 -7 -14 4 -20 2
-15 -5 4 -6 -2 -8 -15 -5 -12 4 -22 2 -22 -4 0 -6 -7 -8 -15 -4 -8 3 -15 1
-15 -5 0 -6 -7 -9 -15 -5 -8 3 -15 1 -15 -5 0 -6 -9 -8 -21 -4 -16 5 -19 4
-14 -6 6 -9 2 -11 -13 -7 -12 4 -22 2 -22 -4 0 -6 -7 -8 -15 -4 -8 3 -15 1
-15 -5 0 -6 -9 -8 -21 -4 -16 5 -19 4 -14 -6 6 -9 2 -11 -13 -7 -12 4 -22 2
-22 -4 0 -5 -10 -6 -21 -3 -16 5 -19 4 -14 -6 6 -9 2 -11 -13 -7 -12 4 -22 2
-22 -4 0 -5 -10 -6 -21 -3 -16 5 -19 4 -14 -6 6 -9 2 -11 -13 -7 -12 4 -22 2
-22 -4 0 -6 -9 -8 -20 -5 -11 3 -20 1 -20 -5 0 -6 -9 -8 -20 -5 -11 3 -20 1
-20 -5 0 -6 -9 -8 -20 -5 -11 3 -20 1 -20 -5 0 -6 -9 -8 -20 -5 -11 3 -20 1
-20 -5 0 -6 -11 -7 -26 -4 -18 5 -24 3 -18 -5 5 -9 0 -10 -20 -5 -16 4 -26 2
-26 -5 0 -7 -9 -9 -25 -5 -16 4 -25 2 -25 -5 0 -7 -9 -9 -25 -5 -16 4 -25 2
-25 -5 0 -7 -9 -9 -25 -5 -16 4 -25 2 -25 -5 0 -7 -11 -9 -30 -5 -19 3 -30 1
-30 -5 0 -7 -12 -9 -35 -5 -24 5 -35 3 -35 -5 0 -7 -11 -9 -35 -5 -24 5 -35 3
-35 -5 0 -8 -14 -10 -45 -6 -27 4 -47 2 -51 -4 -4 -8 -27 -9 -65 -5 -39 5 -59
3 -59 -4 0 -14 -416 -14 -425 0 -4 7 -31 8 -71 4 -44 -5 -64 -3 -64 4 0 8 -15
10 -45 5 -31 -4 -45 -2 -45 6 0 8 -13 9 -40 5 -26 -4 -40 -3 -40 4 0 7 -11 9
-30 5 -20 -4 -30 -2 -30 7 0 8 -10 9 -30 5 -19 -4 -30 -3 -30 4 0 6 -12 8 -30
5 -19 -4 -30 -2 -30 5 0 7 -9 9 -25 5 -16 -4 -25 -2 -25 5 0 7 -10 9 -26 5
-20 -5 -25 -4 -20 5 6 8 0 10 -18 5 -15 -3 -26 -2 -26 4 0 6 -9 8 -20 5 -12
-3 -20 0 -20 7 0 7 -8 9 -20 5 -12 -4 -20 -2 -20 5 0 7 -8 9 -20 5 -11 -3 -20
-2 -20 3 0 6 -9 8 -20 5 -11 -3 -20 -1 -20 5 0 6 -10 8 -22 4 -15 -4 -19 -2
-13 7 5 10 2 11 -14 6 -12 -4 -21 -2 -21 4 0 6 -7 8 -15 5 -8 -4 -15 -2 -15 4
0 6 -10 8 -22 4 -15 -4 -19 -2 -13 7 6 10 2 11 -15 6 -16 -5 -20 -4 -15 5 5 9
2 10 -14 5 -12 -4 -21 -2 -21 4 0 6 -7 8 -15 5 -8 -4 -15 -1 -15 5 0 6 -7 8
-15 5 -8 -4 -15 -1 -15 5 0 6 -7 8 -15 5 -8 -4 -15 -1 -15 5 0 6 -7 8 -15 5
-8 -4 -15 -1 -15 5 0 6 -7 8 -17 4 -11 -5 -14 -3 -8 6 6 10 2 11 -15 6 -16 -5
-20 -4 -15 5 5 9 1 10 -15 5 -15 -5 -20 -4 -16 4 5 7 1 9 -8 5 -9 -3 -16 -1
-16 5 0 6 -7 8 -15 5 -8 -4 -15 -1 -15 5 0 6 -7 8 -17 4 -10 -4 -14 -2 -10 4
5 7 -1 9 -15 5 -14 -3 -19 -1 -14 6 5 8 2 10 -8 6 -9 -3 -16 -1 -16 5 0 6 -7
8 -17 4 -11 -4 -14 -3 -9 5 5 8 2 10 -8 6 -9 -3 -16 -1 -16 5 0 6 -7 8 -17 4
-12 -5 -14 -3 -8 7 6 10 4 12 -8 7 -22 -8 -49 2 -41 15 4 6 -2 7 -16 3 -15 -5
-20 -4 -16 4 5 7 1 9 -8 5 -9 -3 -16 -1 -16 5 0 6 -7 8 -17 4 -11 -4 -14 -3
-9 5 5 8 2 10 -8 6 -9 -3 -16 -1 -16 5 0 6 -7 8 -17 4 -11 -4 -14 -3 -9 5 5 8
2 10 -8 6 -9 -3 -16 -1 -16 5 0 6 -7 8 -17 4 -11 -4 -14 -3 -9 5 5 8 2 10 -8
6 -9 -3 -16 -1 -16 5 0 6 -7 8 -17 4 -11 -4 -14 -3 -9 5 5 8 2 10 -8 6 -9 -3
-16 -1 -16 5 0 6 -7 8 -17 4 -11 -4 -14 -3 -9 5 5 8 2 10 -8 6 -9 -3 -16 -1
-16 5 0 6 -7 8 -17 4 -12 -5 -14 -3 -8 7 6 10 4 12 -8 7 -22 -8 -49 2 -41 15
4 6 -2 7 -16 3 -15 -5 -20 -4 -16 4 5 7 1 9 -8 5 -9 -3 -16 -1 -16 5 0 6 -7 8
-17 4 -11 -5 -14 -3 -8 6 6 10 2 11 -15 6 -15 -5 -20 -4 -16 4 5 7 1 9 -8 5
-9 -3 -16 -1 -16 5 0 6 -7 8 -17 4 -11 -5 -14 -3 -8 6 6 10 2 11 -15 6 -15 -5
-20 -4 -16 4 5 7 1 9 -8 5 -9 -3 -16 -1 -16 5 0 6 -7 8 -15 5 -8 -4 -15 -1
-15 5 0 6 -7 8 -17 4 -11 -5 -14 -3 -8 6 6 10 2 11 -15 6 -16 -5 -20 -4 -15 5
5 9 1 10 -15 5 -16 -5 -20 -4 -15 5 5 9 1 10 -15 5 -16 -5 -20 -4 -15 5 5 9 1
10 -15 5 -16 -5 -20 -4 -15 5 5 9 1 10 -15 5 -16 -5 -20 -4 -15 5 5 9 2 10
-14 5 -11 -3 -21 -2 -21 3 0 6 -10 8 -22 4 -13 -3 -19 -1 -15 5 5 7 -1 9 -15
5 -15 -4 -19 -2 -13 7 5 10 2 11 -14 6 -11 -3 -21 -2 -21 3 0 6 -9 8 -20 5
-11 -3 -20 -1 -20 5 0 6 -10 8 -22 4 -15 -3 -19 -2 -14 7 6 9 0 10 -20 5 -19
-5 -25 -4 -20 5 6 9 0 10 -20 5 -19 -5 -25 -4 -20 5 6 8 0 10 -18 5 -17 -4
-26 -2 -26 5 0 7 -9 9 -25 5 -14 -3 -25 -2 -25 4 0 5 -11 7 -25 4 -15 -2 -25
0 -25 7 0 7 -9 9 -25 5 -15 -4 -25 -2 -25 5 0 6 -11 8 -30 5 -20 -4 -30 -2
-30 5 0 8 -11 10 -35 5 -23 -4 -35 -2 -35 5 0 7 -15 9 -45 4 -30 -4 -45 -2
-45 5 0 8 -20 9 -64 5 -42 -4 -66 -2 -70 6 -7 11 -55 12 -158 4z"/>
</g>
</svg>
