<?xml version="1.0" standalone="no"?>
<!DOCTYPE svg PUBLIC "-//W3C//DTD SVG 20010904//EN"
 "http://www.w3.org/TR/2001/REC-SVG-20010904/DTD/svg10.dtd">
<svg version="1.0" xmlns="http://www.w3.org/2000/svg"
 width="1920.000000pt" height="219.000000pt" viewBox="0 0 1920.000000 219.000000"
 preserveAspectRatio="xMidYMid meet">
<metadata>
Created by potrace 1.16, written by Peter Selinger 2001-2019
</metadata>
<g transform="translate(0.000000,219.000000) scale(0.100000,-0.100000)"
fill="#000000" stroke="none">
<path d="M0 2097 l0 -94 163 -6 c178 -7 360 -31 541 -72 401 -90 738 -236
1416 -615 613 -342 841 -445 1175 -530 243 -62 346 -75 615 -74 197 0 256 4
365 22 435 75 728 185 1605 605 190 90 404 190 475 222 588 261 1049 393 1514
436 252 22 681 2 976 -47 444 -73 783 -166 1700 -464 639 -208 847 -270 1140
-344 663 -166 1253 -237 1785 -215 113 4 234 11 270 14 743 70 1326 187 2850
575 366 93 791 199 945 235 688 162 1265 255 1581 255 l84 0 0 96 0 96 -122
-7 c-556 -30 -1086 -128 -2168 -401 -1025 -260 -1253 -317 -1475 -367 -1540
-354 -2283 -397 -3300 -192 -432 88 -775 185 -1615 460 -990 324 -1443 434
-2005 486 -169 16 -558 16 -710 0 -400 -42 -789 -143 -1235 -322 -228 -91
-439 -186 -900 -406 -619 -296 -890 -405 -1197 -482 -207 -52 -286 -63 -505
-68 -302 -8 -490 19 -768 109 -264 85 -506 202 -1016 489 -350 196 -600 325
-794 406 -426 180 -796 265 -1257 288 l-133 7 0 -95z"/>
</g>
</svg>
