<svg xmlns="http://www.w3.org/2000/svg" xmlns:xlink="http://www.w3.org/1999/xlink" viewBox="0 0 1133 891"><defs><style>.cls-1{isolation:isolate;}.cls-2,.cls-3,.cls-4{mix-blend-mode:multiply;}.cls-2{fill:url(#Безымянный_градиент_84);}.cls-3{fill:url(#Безымянный_градиент_84-2);}.cls-4{fill:url(#Безымянный_градиент_84-3);}</style><linearGradient id="Безымянный_градиент_84" x1="758.16" y1="57.22" x2="413.18" y2="797.04" gradientUnits="userSpaceOnUse"><stop offset="0" stop-color="#ffb56a"/><stop offset="1" stop-color="#8932a2"/></linearGradient><linearGradient id="Безымянный_градиент_84-2" x1="1095.78" y1="662.71" x2="91.42" y2="297.16" xlink:href="#Безымянный_градиент_84"/><linearGradient id="Безымянный_градиент_84-3" x1="1034" y1="511.5" x2="77" y2="511.5" xlink:href="#Безымянный_градиент_84"/></defs><g class="cls-1"><g id="Слой_2" data-name="Слой 2"><g id="Layer_1" data-name="Layer 1"><path class="cls-2" d="M1114,425.94c-53.48-149.57-136.48-265-383-381.39C619.63-8,401.64-24.46,244.51,53.17S35.23,229.55,9.08,348.16C-17.35,468,4.82,681,198.82,669.29s264.74-7,417.15,72.88,318,82.9,423.19-1.64C1149.57,651.77,1144.83,512.13,1114,425.94Z"/><path class="cls-3" d="M1070,593.54C1024.62,384.15,909.49,265.8,716.85,158.08c-100-55.93-258.88-96.5-403.26-49.39S96.87,264.74,67.05,366.78C36.9,469.92,54,697.41,227.65,714.24s240.86-17.42,372.4,75.16,271.8,133.58,370.21,73C1073.59,798.81,1091.46,692.77,1070,593.54Z"/><path class="cls-4" d="M914.26,234.94C741,130.92,585.2,120.83,389.87,176.31c-101.42,28.81-217.61,88.92-276.7,213.43s-39,260.74,11.8,346.33C176.35,822.58,323.34,943,444.61,840.93s170.63-133.8,317-159.34,246.45-93.84,267.29-197.16C1050.79,375.94,1000.24,286.56,914.26,234.94Z"/></g></g></g></svg>