<svg xmlns="http://www.w3.org/2000/svg" viewBox="0 0 511.85 511.83"><defs><style>.cls-1{fill:#e4654c;}</style></defs><g id="Слой_2" data-name="Слой 2"><g id="Слой_1-2" data-name="Слой 1"><g id="Слой_2-2" data-name="Слой 2"><g id="Слой_1-2-2" data-name="Слой 1-2"><path class="cls-1" d="M14.85,341.81C62.3,474.92,208.67,544.35,341.77,496.9A255.86,255.86,0,0,0,496.85,170a10.42,10.42,0,1,0-19.62,7c43.64,122.24-20.08,256.7-142.31,300.33a235,235,0,0,1-179.81-9c-117-56.1-166.43-196.46-110.32-313.49S241.25-11.67,358.28,44.43q9.27,4.45,18.13,9.69a10.41,10.41,0,1,0,10.67-17.88h0C265.76-36.22,108.67,3.38,36.21,124.7A255.82,255.82,0,0,0,14.85,341.81Z"/><path class="cls-1" d="M141.3,255.89a10.42,10.42,0,0,0,10.41,10.42H411.07a10.42,10.42,0,0,0,0-20.83H151.71A10.41,10.41,0,0,0,141.3,255.89Z"/><path class="cls-1" d="M224.28,147a10.41,10.41,0,1,0-14.48-15l-.24.24L93.27,248.53a10.43,10.43,0,0,0,0,14.73L209.56,379.55a10.41,10.41,0,1,0,14.72-14.73h0L115.36,255.9Z"/></g></g></g></g></svg>